{
	"asset":{
		"generator":"Khronos glTF Blender I/O v4.0.44",
		"version":"2.0"
	},
	"scene":0,
	"scenes":[
		{
			"name":"Scene",
			"nodes":[
				0
			]
		}
	],
	"nodes":[
		{
			"mesh":0,
			"name":"Cube",
			"rotation":[
				0,
				1,
				0,
				0
			],
			"scale":[
				-1,
				-0.17560148239135742,
				-1.3401389122009277
			],
			"translation":[
				0,
				1.0079138278961182,
				0
			]
		}
	],
	"materials":[
		{
			"doubleSided":true,
			"name":"okladka",
			"normalTexture":{
				"index":0
			},
			"pbrMetallicRoughness":{
				"baseColorTexture":{
					"index":1
				},
				"metallicRoughnessTexture":{
					"index":2
				}
			}
		},
		{
			"doubleSided":true,
			"name":"strony",
			"normalTexture":{
				"index":3
			},
			"pbrMetallicRoughness":{
				"baseColorTexture":{
					"index":4
				},
				"metallicRoughnessTexture":{
					"index":5
				},
				"roughnessFactor":0.5
			}
		}
	],
	"meshes":[
		{
			"name":"Cube.001",
			"primitives":[
				{
					"attributes":{
						"POSITION":0,
						"NORMAL":1,
						"TEXCOORD_0":2
					},
					"indices":3,
					"material":0
				},
				{
					"attributes":{
						"POSITION":4,
						"NORMAL":5,
						"TEXCOORD_0":6
					},
					"indices":7,
					"material":1
				}
			]
		}
	],
	"textures":[
		{
			"sampler":0,
			"source":0
		},
		{
			"sampler":0,
			"source":1
		},
		{
			"sampler":0,
			"source":2
		},
		{
			"sampler":0,
			"source":3
		},
		{
			"sampler":0,
			"source":4
		},
		{
			"sampler":0,
			"source":5
		}
	],
	"images":[
		{
			"mimeType":"image/png",
			"name":"okladka_Normal",
			"uri":"okladka_Normal.png"
		},
		{
			"mimeType":"image/png",
			"name":"okladka_BaseColor",
			"uri":"okladka_BaseColor.png"
		},
		{
			"mimeType":"image/png",
			"name":"okladka_Metallic-okladka_Roughness",
			"uri":"okladka_Metallic-okladka_Roughness.png"
		},
		{
			"mimeType":"image/png",
			"name":"strony_Normal",
			"uri":"strony_Normal.png"
		},
		{
			"mimeType":"image/png",
			"name":"strony_BaseColor",
			"uri":"strony_BaseColor.png"
		},
		{
			"mimeType":"image/png",
			"name":"strony_Metallic",
			"uri":"strony_Metallic.png"
		}
	],
	"accessors":[
		{
			"bufferView":0,
			"componentType":5126,
			"count":138,
			"max":[
				1,
				1,
				1
			],
			"min":[
				-1.035927414894104,
				-1,
				-1
			],
			"type":"VEC3"
		},
		{
			"bufferView":1,
			"componentType":5126,
			"count":138,
			"type":"VEC3"
		},
		{
			"bufferView":2,
			"componentType":5126,
			"count":138,
			"type":"VEC2"
		},
		{
			"bufferView":3,
			"componentType":5123,
			"count":360,
			"type":"SCALAR"
		},
		{
			"bufferView":4,
			"componentType":5126,
			"count":18,
			"max":[
				0.9700808525085449,
				0.9044141173362732,
				0.9838382601737976
			],
			"min":[
				-1.0178111791610718,
				-0.9044141173362732,
				-0.9838382601737976
			],
			"type":"VEC3"
		},
		{
			"bufferView":5,
			"componentType":5126,
			"count":18,
			"type":"VEC3"
		},
		{
			"bufferView":6,
			"componentType":5126,
			"count":18,
			"type":"VEC2"
		},
		{
			"bufferView":7,
			"componentType":5123,
			"count":36,
			"type":"SCALAR"
		}
	],
	"bufferViews":[
		{
			"buffer":0,
			"byteLength":1656,
			"byteOffset":0,
			"target":34962
		},
		{
			"buffer":0,
			"byteLength":1656,
			"byteOffset":1656,
			"target":34962
		},
		{
			"buffer":0,
			"byteLength":1104,
			"byteOffset":3312,
			"target":34962
		},
		{
			"buffer":0,
			"byteLength":720,
			"byteOffset":4416,
			"target":34963
		},
		{
			"buffer":0,
			"byteLength":216,
			"byteOffset":5136,
			"target":34962
		},
		{
			"buffer":0,
			"byteLength":216,
			"byteOffset":5352,
			"target":34962
		},
		{
			"buffer":0,
			"byteLength":144,
			"byteOffset":5568,
			"target":34962
		},
		{
			"buffer":0,
			"byteLength":72,
			"byteOffset":5712,
			"target":34963
		}
	],
	"samplers":[
		{
			"magFilter":9729,
			"minFilter":9987
		}
	],
	"buffers":[
		{
			"byteLength":5784,
			"uri":"ksziaka.bin"
		}
	]
}
